<?xml version="1.0" encoding="utf-8"?>
<!-- Generator: Adobe Illustrator 16.0.2, SVG Export Plug-In . SVG Version: 6.00 Build 0)  -->
<!DOCTYPE svg PUBLIC "-//W3C//DTD SVG 1.1//EN" "http://www.w3.org/Graphics/SVG/1.1/DTD/svg11.dtd">
<svg version="1.1" id="Layer_1" xmlns="http://www.w3.org/2000/svg" xmlns:xlink="http://www.w3.org/1999/xlink" x="0px" y="0px"
	 width="213.5px" height="34.75px" viewBox="0 0 213.5 34.75" enable-background="new 0 0 213.5 34.75" xml:space="preserve">
<path fill="none" stroke="#40A629" stroke-width="3" stroke-miterlimit="10" d="M211,20.667c0,6.627-5.373,12-12,12H15
	c-6.627,0-12-5.373-12-12V14C3,7.373,8.373,2,15,2h184c6.627,0,12,5.373,12,12V20.667z"/>
<path display="none" fill="#CCE70B" d="M206,20.333c0,4.97-5.097,9-11.385,9H20.052c-6.288,0-11.385-4.03-11.385-9v-5
	c0-4.971,5.097-9,11.385-9h174.563c6.288,0,11.385,4.029,11.385,9V20.333z"/>
</svg>
